<?xml version="1.0" standalone="no"?>
<!DOCTYPE svg PUBLIC "-//W3C//DTD SVG 20010904//EN"
 "http://www.w3.org/TR/2001/REC-SVG-20010904/DTD/svg10.dtd">
<svg version="1.0" xmlns="http://www.w3.org/2000/svg"
 width="1640.000000pt" height="848.000000pt" viewBox="0 0 1640.000000 848.000000"
 preserveAspectRatio="xMidYMid meet">

<g transform="translate(0.000000,848.000000) scale(0.100000,-0.100000)"
fill="#000000" stroke="none">
<path d="M4050 8364 c-240 -32 -470 -106 -700 -225 l-138 -72 -54 31 c-184
105 -454 192 -704 227 -129 18 -413 21 -537 6 -475 -61 -864 -244 -1196 -565
-324 -314 -526 -710 -603 -1181 -20 -122 -16 -504 5 -630 81 -463 273 -833
598 -1151 193 -188 388 -318 644 -425 l89 -37 2 -114 c3 -282 53 -551 142
-775 l21 -52 -43 -93 c-135 -288 -189 -542 -189 -883 0 -224 12 -336 58 -515
142 -563 527 -1050 1039 -1315 465 -240 1018 -296 1531 -154 556 153 1018 538
1284 1067 61 121 142 359 167 492 10 52 19 97 21 99 2 3 42 -34 91 -80 310
-300 694 -490 1128 -556 150 -22 480 -22 624 1 130 21 267 55 385 96 123 43
332 146 434 215 l84 56 26 -24 c38 -35 174 -127 266 -179 179 -102 419 -188
638 -229 144 -27 459 -37 618 -19 450 49 866 245 1195 563 56 53 104 97 108
97 3 0 6 -26 6 -57 0 -32 7 -103 15 -158 117 -820 705 -1480 1505 -1689 206
-54 347 -69 590 -63 231 5 352 24 547 83 646 195 1151 691 1357 1333 75 232
100 426 93 704 -5 213 -22 334 -72 512 -13 50 -25 93 -25 97 0 4 35 25 78 47
197 100 360 220 529 389 181 180 285 325 386 532 277 573 272 1284 -12 1848
-244 482 -661 847 -1166 1017 -71 24 -172 53 -223 65 -77 17 -111 31 -195 82
-332 201 -667 292 -1072 292 -206 0 -345 -16 -516 -59 -501 -127 -937 -440
-1224 -880 -56 -86 -145 -265 -185 -372 -19 -51 -38 -93 -41 -93 -4 0 -21 37
-39 83 -240 607 -756 1062 -1394 1227 -172 44 -327 63 -521 63 -245 -1 -442
-31 -664 -103 l-93 -30 -56 34 c-599 360 -1361 395 -1987 91 -60 -29 -154 -81
-207 -115 -85 -53 -103 -61 -139 -58 l-42 3 -23 75 c-67 223 -183 448 -332
645 -60 79 -239 263 -327 334 -305 250 -681 407 -1077 450 -131 15 -380 12
-508 -5z m478 -65 c595 -65 1123 -376 1447 -854 112 -165 214 -377 260 -543
10 -35 27 -74 37 -88 17 -21 27 -24 90 -24 69 0 73 2 152 53 224 147 493 251
781 302 144 26 396 31 552 11 294 -38 605 -144 818 -281 31 -19 65 -35 76 -35
12 0 68 16 126 35 424 144 845 143 1272 -1 497 -168 900 -513 1139 -974 48
-93 122 -268 122 -288 0 -35 75 -57 98 -29 6 7 25 53 43 103 146 415 447 787
829 1025 167 103 383 195 580 244 158 40 286 55 475 55 247 0 434 -31 660
-110 110 -39 328 -144 411 -199 45 -30 83 -45 150 -60 183 -41 328 -93 495
-176 581 -288 960 -815 1077 -1499 21 -127 24 -475 3 -581 -31 -163 -68 -303
-102 -380 -118 -274 -184 -391 -310 -551 -173 -218 -390 -397 -644 -529 -60
-32 -116 -62 -122 -67 -20 -16 -15 -60 17 -171 169 -564 77 -1161 -254 -1667
-35 -53 -90 -128 -124 -167 -34 -40 -62 -75 -62 -79 0 -9 -107 -114 -115 -114
-4 0 -32 -23 -63 -51 -137 -123 -426 -288 -626 -358 -376 -132 -779 -152
-1156 -56 -842 212 -1441 918 -1509 1779 -7 96 -13 123 -27 133 -40 29 -63 16
-173 -92 -188 -185 -374 -314 -589 -410 -452 -200 -946 -230 -1417 -85 -144
44 -307 116 -420 185 -76 47 -169 110 -219 149 -33 25 -67 46 -75 46 -9 0 -61
-30 -116 -66 -376 -247 -855 -368 -1275 -319 -273 31 -485 91 -705 199 -217
106 -380 223 -540 385 -66 67 -85 81 -111 81 -46 0 -60 -24 -83 -136 -180
-881 -883 -1513 -1786 -1605 -194 -19 -438 -2 -625 46 -313 79 -538 190 -815
403 -96 74 -205 175 -205 190 0 4 -25 34 -55 66 -30 33 -55 60 -55 61 0 2 -33
53 -74 114 -200 299 -313 632 -335 989 -10 162 -10 157 1 287 20 235 79 457
182 686 l57 126 -41 104 c-75 190 -143 623 -126 795 8 74 3 79 -109 125 -406
167 -741 450 -950 804 -266 451 -354 949 -253 1440 30 147 99 349 167 488 275
559 774 940 1406 1074 120 25 148 27 370 28 191 0 261 -4 340 -18 221 -41 410
-104 605 -204 57 -29 111 -53 119 -53 7 0 53 23 101 50 231 132 528 229 790
259 110 12 307 13 418 0z"/>
<path d="M3235 6860 c-75 -10 -149 -38 -206 -77 -62 -42 -124 -73 -151 -74
-13 0 -86 9 -163 22 -117 19 -178 23 -370 23 -202 0 -241 -2 -324 -22 -182
-42 -323 -117 -449 -237 -175 -166 -272 -331 -328 -560 -64 -262 -33 -529 85
-720 62 -100 194 -230 271 -266 113 -53 159 -64 275 -64 93 0 116 4 150 22 61
32 78 56 82 116 5 65 -16 102 -87 153 -42 30 -57 51 -89 118 -96 201 -94 359
5 565 61 126 172 240 284 294 101 48 362 99 386 75 3 -4 -17 -66 -45 -140
-167 -450 -307 -988 -360 -1384 -45 -333 -51 -762 -16 -983 65 -398 333 -764
659 -900 123 -51 194 -64 361 -64 136 -1 157 2 230 26 44 14 109 43 145 64 75
44 241 204 319 308 50 67 52 68 47 35 -3 -19 -13 -87 -22 -150 -37 -268 -102
-549 -164 -704 -101 -256 -308 -489 -475 -536 -61 -17 -116 -1 -277 83 -109
56 -124 61 -197 65 -108 6 -145 -3 -192 -45 -58 -53 -69 -80 -69 -173 0 -105
18 -141 124 -245 127 -126 275 -190 499 -216 214 -25 425 10 605 99 283 140
569 539 691 963 132 461 181 940 165 1629 -13 519 -14 496 34 620 50 131 214
628 282 855 93 310 131 487 176 818 38 280 -23 429 -211 518 -117 56 -291 59
-400 8 -88 -41 -173 -136 -238 -265 -62 -122 -145 -405 -181 -619 -30 -178
-87 -573 -101 -705 -17 -157 -37 -688 -33 -901 l2 -146 -58 -102 c-131 -231
-320 -490 -468 -642 -94 -95 -226 -189 -266 -189 -37 0 -152 122 -214 226
-168 281 -182 654 -53 1353 79 428 245 980 387 1289 l33 72 185 4 c184 3 232
11 321 48 46 20 106 73 126 112 20 37 22 175 4 221 -35 86 -158 201 -276 256
-123 58 -316 88 -450 69z m255 -130 c106 -26 216 -79 280 -137 114 -102 119
-223 12 -271 -97 -45 -158 -54 -343 -56 -140 -1 -180 -4 -194 -16 -25 -21 -85
-154 -156 -345 -157 -421 -271 -878 -346 -1380 -26 -175 -28 -212 -28 -480 1
-261 3 -299 22 -382 45 -191 141 -362 276 -490 128 -121 196 -115 388 37 171
135 420 449 601 760 74 126 81 156 73 310 -8 159 9 658 30 855 32 300 110 768
165 986 30 115 88 276 126 349 61 116 96 155 171 192 60 29 77 33 148 33 64
-1 91 -6 135 -26 114 -53 160 -117 168 -234 5 -82 -25 -313 -69 -530 -17 -82
-32 -161 -34 -175 -9 -79 -231 -796 -282 -910 -14 -30 -45 -109 -70 -175 -54
-142 -52 -113 -40 -715 9 -425 3 -606 -34 -900 -51 -413 -139 -743 -261 -982
-89 -175 -240 -378 -345 -464 -174 -143 -435 -228 -642 -210 -232 21 -453 123
-539 250 -40 60 -47 88 -36 134 13 50 54 77 115 76 40 0 70 -11 152 -54 158
-82 214 -100 311 -100 76 0 90 3 157 37 58 29 97 59 180 142 195 196 290 372
368 687 50 202 95 472 122 742 12 118 12 123 -8 150 -11 15 -31 28 -45 30 -29
4 -55 -25 -188 -209 -199 -275 -396 -401 -626 -401 -240 1 -500 126 -643 309
-66 85 -142 209 -164 268 -89 237 -104 303 -118 533 -17 263 6 569 67 912 61
337 221 886 370 1264 42 107 42 149 1 180 -58 43 -361 18 -516 -44 -83 -32
-153 -84 -238 -174 -92 -97 -143 -181 -180 -291 -25 -73 -27 -94 -27 -240 -1
-154 0 -163 30 -245 40 -112 92 -191 154 -236 68 -49 66 -72 -10 -97 -51 -17
-59 -17 -124 -3 -114 26 -205 76 -273 150 -190 207 -249 466 -173 760 72 277
237 500 460 624 77 43 249 98 350 113 109 16 323 6 500 -22 205 -33 250 -35
307 -9 26 11 76 39 110 62 121 78 243 96 403 58z"/>
<path d="M7565 6552 c-44 -27 -118 -113 -171 -198 -97 -155 -230 -528 -328
-922 -146 -580 -225 -1050 -286 -1707 -61 -646 -22 -1011 127 -1175 57 -64
123 -107 209 -136 71 -24 90 -26 189 -22 123 5 153 16 204 73 27 31 31 43 31
95 0 51 -6 72 -40 138 -48 92 -85 232 -101 383 -26 248 27 826 137 1478 65
390 117 615 286 1241 82 304 98 384 100 505 3 122 -5 145 -64 202 -49 47 -96
63 -185 63 -58 0 -86 -5 -108 -18z m182 -112 c45 -20 73 -66 73 -121 0 -75
-66 -382 -120 -559 -148 -484 -248 -959 -329 -1565 -52 -388 -87 -881 -76
-1075 11 -197 51 -365 115 -488 17 -34 30 -69 28 -79 -2 -10 -23 -28 -48 -41
-96 -50 -268 -10 -373 87 -119 110 -176 360 -163 716 29 823 261 2061 502
2679 65 168 112 256 188 359 80 109 119 126 203 87z"/>
<path d="M12860 6318 c-48 -17 -151 -123 -183 -189 -15 -30 -41 -108 -58 -174
-29 -108 -32 -138 -37 -300 -3 -139 0 -200 12 -265 37 -197 140 -310 281 -310
74 1 128 19 167 57 40 39 50 62 68 158 6 33 31 121 55 195 24 74 51 178 60
230 22 126 31 371 16 428 -15 52 -78 125 -135 154 -49 25 -192 34 -246 16z
m200 -128 c47 -24 64 -48 81 -111 25 -95 -25 -439 -85 -580 -8 -20 -29 -90
-46 -155 -17 -71 -36 -124 -46 -131 -9 -7 -36 -15 -60 -19 -65 -9 -110 17
-156 91 -51 83 -70 163 -71 309 -1 129 13 213 60 361 46 144 85 205 153 241
53 28 106 26 170 -6z"/>
<path d="M10224 4956 c-95 -43 -99 -172 -9 -256 58 -54 81 -152 71 -300 -19
-280 -102 -584 -254 -935 -94 -219 -152 -332 -162 -314 -13 23 -58 226 -80
354 -39 232 -50 373 -60 735 -12 440 -21 489 -102 592 -42 53 -100 78 -184 78
-102 0 -134 -12 -193 -75 -56 -59 -79 -106 -116 -230 -13 -44 -24 -71 -24 -59
-1 11 -11 49 -22 83 -17 50 -36 79 -86 132 -95 101 -186 138 -390 158 -242 25
-410 -57 -654 -315 -123 -131 -254 -386 -330 -639 -53 -177 -71 -307 -76 -557
-8 -342 11 -466 98 -646 42 -86 62 -115 128 -181 121 -121 216 -160 391 -161
176 0 279 43 424 181 165 156 220 246 426 693 53 116 101 211 107 213 6 2 13
-25 18 -69 26 -273 116 -588 216 -764 53 -93 159 -206 220 -234 65 -29 212
-28 276 2 175 82 466 530 635 977 87 231 165 559 202 849 18 140 21 345 5 411
-25 110 -103 211 -200 262 -55 29 -224 38 -275 15z m187 -88 c84 -25 153 -114
185 -239 46 -178 -59 -769 -206 -1153 -108 -286 -290 -631 -411 -783 -63 -80
-134 -136 -205 -163 -54 -20 -59 -20 -112 -4 -77 22 -160 107 -223 229 -66
128 -104 251 -153 491 -92 451 -118 1079 -55 1313 11 41 35 107 53 147 29 61
41 76 75 93 74 38 161 20 199 -40 11 -19 30 -63 42 -99 21 -60 23 -87 26 -380
4 -325 20 -550 54 -773 35 -231 106 -515 137 -549 23 -26 75 -23 101 5 50 53
264 539 342 775 112 341 158 708 114 902 -14 63 -21 74 -64 112 -59 52 -72 89
-39 112 27 19 86 21 140 4z m-1704 -59 c127 -27 214 -80 255 -156 59 -107 72
-265 37 -436 -56 -277 -166 -469 -309 -542 -29 -15 -96 -39 -149 -53 -84 -23
-116 -26 -258 -26 -195 -1 -192 1 -204 -113 -12 -116 -3 -385 16 -483 30 -155
97 -270 156 -270 79 0 335 270 507 534 159 247 194 295 214 302 45 14 39 -14
-40 -187 -225 -492 -283 -592 -401 -701 -187 -171 -381 -203 -584 -95 -142 75
-242 243 -283 479 -23 129 -23 437 0 573 61 363 233 745 425 949 113 119 282
212 431 239 31 6 130 -2 187 -14z m393 -842 c0 -56 5 -153 11 -216 6 -62 8
-115 6 -117 -3 -3 -22 6 -42 21 -28 18 -51 25 -87 25 -92 0 -105 -14 -301
-315 -65 -99 -126 -191 -136 -205 -10 -14 -31 -45 -47 -70 -33 -51 -217 -240
-234 -240 -18 0 -57 98 -77 190 -13 62 -18 129 -18 250 0 91 4 173 7 183 7 15
22 17 127 17 166 0 339 34 446 88 28 13 82 57 122 97 78 80 139 190 184 332
12 40 26 70 31 67 4 -3 8 -51 8 -107z"/>
<path d="M8588 4593 c-146 -136 -355 -471 -423 -678 -37 -110 -43 -179 -19
-206 16 -18 26 -20 67 -15 142 19 257 85 339 195 87 115 184 414 195 596 5 92
4 102 -17 128 -35 44 -79 38 -142 -20z m87 -109 c-10 -84 -60 -263 -105 -379
-50 -127 -109 -210 -189 -263 -56 -37 -138 -68 -160 -61 -29 11 105 309 209
469 115 174 223 305 243 293 5 -3 6 -29 2 -59z"/>
<path d="M13501 4904 c-82 -22 -149 -62 -222 -134 -80 -79 -119 -146 -155
-265 -23 -77 -27 -109 -28 -225 0 -112 3 -148 22 -214 31 -108 82 -208 147
-289 30 -38 55 -73 55 -78 0 -5 -26 -9 -59 -9 -84 0 -180 -49 -260 -136 -106
-113 -135 -197 -135 -384 1 -155 21 -255 76 -370 33 -68 57 -101 122 -166 90
-90 168 -138 291 -180 105 -36 313 -46 415 -20 179 45 369 189 483 366 45 72
65 141 73 255 18 256 -85 459 -406 799 -190 203 -230 355 -138 528 35 67 82
108 125 111 23 2 27 -2 25 -18 -2 -11 -6 -93 -9 -181 -8 -240 22 -348 127
-449 41 -40 41 -40 115 -38 121 3 175 45 175 137 0 84 18 231 52 421 34 195
41 369 19 437 -37 112 -217 157 -298 75 l-34 -33 -82 27 c-146 49 -380 64
-496 33z m372 -114 c43 -10 98 -28 124 -40 25 -11 64 -20 87 -20 35 0 46 6 77
40 22 24 46 40 59 40 34 0 78 -31 90 -63 17 -50 11 -164 -15 -312 -29 -160
-55 -367 -55 -437 0 -60 -26 -91 -73 -86 -41 4 -98 78 -122 157 -25 85 -30
229 -11 339 9 50 16 103 16 117 0 62 -95 100 -186 75 -67 -19 -146 -95 -189
-183 -30 -60 -37 -87 -42 -159 -13 -182 35 -301 185 -460 290 -309 397 -497
396 -698 -2 -159 -55 -282 -169 -388 -86 -80 -157 -124 -257 -160 -62 -22 -90
-26 -183 -26 -97 0 -120 3 -198 31 -229 81 -358 219 -417 449 -25 97 -28 222
-6 296 18 65 80 163 126 201 58 49 190 107 190 83 0 -2 -15 -27 -34 -55 -33
-49 -56 -122 -56 -180 0 -52 39 -182 77 -253 40 -76 154 -205 233 -263 87 -64
158 -37 217 83 26 54 28 65 28 187 0 211 -22 256 -284 584 -180 224 -212 275
-253 401 -41 126 -42 234 -3 365 56 191 161 303 326 350 69 19 216 13 322 -15z
m-360 -1329 c154 -203 190 -348 121 -488 -14 -29 -29 -53 -34 -53 -4 0 -30 17
-57 38 -93 74 -173 204 -208 337 -13 53 -13 65 0 110 8 28 30 69 50 92 19 23
35 49 35 58 0 25 12 13 93 -94z"/>
<path d="M6317 4886 c-83 -30 -152 -98 -207 -204 -12 -23 -26 -44 -30 -47 -4
-3 -20 14 -36 36 -87 127 -226 194 -419 206 -121 7 -190 -6 -283 -52 -187 -94
-373 -360 -457 -654 -117 -411 -158 -1017 -85 -1279 44 -160 150 -306 274
-381 147 -88 390 -104 519 -33 89 48 184 172 272 355 30 61 56 104 59 96 2 -7
14 -57 25 -110 29 -128 68 -207 141 -283 95 -99 193 -136 362 -136 111 0 158
14 204 61 38 39 39 42 39 112 0 61 -4 79 -28 120 -65 111 -103 276 -114 492
-10 229 30 688 98 1113 34 213 38 352 12 428 -21 63 -102 145 -159 162 -54 16
-139 15 -187 -2z m180 -117 c48 -30 83 -105 83 -180 0 -30 -11 -127 -25 -215
-84 -538 -122 -1065 -96 -1326 14 -148 51 -293 96 -383 64 -127 42 -160 -105
-160 -95 1 -161 19 -234 65 -107 68 -181 257 -202 515 -7 88 -21 115 -62 115
-25 0 -72 -34 -72 -52 0 -5 -32 -80 -71 -166 -140 -309 -244 -422 -404 -439
-94 -10 -269 56 -345 130 -68 67 -129 174 -154 274 -57 220 -30 703 59 1053
70 278 145 441 273 598 72 88 206 163 320 178 106 14 287 -49 359 -125 21 -22
58 -82 83 -133 43 -90 46 -93 81 -96 46 -4 53 6 87 114 31 97 86 193 127 220
73 48 139 52 202 13z"/>
<path d="M5648 4598 c-97 -104 -217 -428 -282 -763 -34 -174 -48 -319 -53
-566 -5 -218 -3 -267 11 -332 20 -88 46 -127 85 -127 44 0 70 27 163 169 104
159 183 318 301 601 47 113 97 230 111 260 33 71 33 132 1 260 -59 234 -129
399 -203 481 -55 61 -89 65 -134 17z m142 -183 c39 -85 86 -220 121 -351 l30
-113 -25 -49 c-14 -27 -66 -148 -117 -268 -50 -121 -117 -273 -149 -339 -56
-115 -200 -358 -220 -370 -21 -13 -33 57 -38 214 -7 252 22 529 83 789 55 233
145 478 212 575 l26 37 25 -32 c13 -18 37 -60 52 -93z"/>
<path d="M12220 4891 c-78 -24 -152 -93 -203 -188 l-33 -62 -67 74 c-47 51
-84 81 -123 100 -87 41 -196 65 -298 65 -170 0 -282 -47 -403 -170 -89 -89
-135 -154 -195 -275 -133 -265 -207 -627 -224 -1090 -13 -385 41 -583 206
-746 95 -95 169 -132 304 -155 180 -30 314 12 427 135 61 66 143 196 181 289
12 28 25 52 28 52 4 0 15 -37 24 -82 29 -136 70 -221 143 -299 99 -104 191
-139 370 -139 117 0 163 14 209 61 38 39 39 42 38 108 0 59 -5 76 -32 117 -40
63 -48 85 -71 198 -71 339 -55 764 55 1451 32 199 31 356 -3 420 -28 52 -88
110 -135 130 -39 16 -153 19 -198 6z m177 -122 c71 -44 101 -182 68 -324 -23
-103 -64 -385 -70 -479 -9 -154 -36 -521 -45 -616 -17 -172 15 -479 65 -621 8
-22 30 -66 49 -99 31 -52 34 -63 23 -81 -38 -62 -236 -48 -362 26 -101 59
-182 259 -201 495 -7 95 -27 130 -74 130 -33 0 -50 -18 -83 -90 -58 -128 -177
-362 -211 -418 -49 -81 -143 -142 -241 -157 -99 -15 -282 53 -365 136 -58 58
-124 183 -151 286 -35 133 -28 447 17 773 22 157 94 438 143 554 78 187 182
338 276 401 132 87 270 107 413 60 136 -46 196 -101 251 -235 30 -72 47 -90
86 -90 43 0 58 20 90 115 49 148 97 211 190 248 45 18 85 14 132 -14z"/>
<path d="M11541 4590 c-51 -50 -71 -89 -138 -274 -85 -233 -175 -619 -159
-682 4 -15 2 -24 -5 -24 -8 0 -10 -14 -6 -45 4 -25 3 -45 -1 -45 -12 0 -15
-489 -2 -565 16 -103 37 -139 80 -143 29 -2 41 3 71 35 44 46 165 235 219 343
41 81 174 378 208 466 11 27 41 91 66 143 57 118 58 149 10 331 -84 319 -176
488 -268 495 -29 3 -42 -3 -75 -35z m116 -156 c30 -54 90 -204 96 -243 2 -9
16 -68 32 -131 l28 -115 -38 -85 c-43 -98 -119 -284 -130 -320 -9 -30 -111
-249 -158 -340 -19 -36 -60 -105 -93 -155 l-58 -90 -7 33 c-10 49 -14 384 -6
486 4 49 11 103 17 120 5 17 17 78 26 136 32 211 124 526 206 702 17 38 36 67
41 65 6 -2 26 -30 44 -63z"/>
</g>
</svg>
