<svg xmlns="http://www.w3.org/2000/svg" xmlns:xlink="http://www.w3.org/1999/xlink" width="1000" zoomAndPan="magnify" viewBox="0 0 750 749.999995" height="1000" preserveAspectRatio="xMidYMid meet" version="1.0"><defs><clipPath id="75f3cb70af"><path d="M 93.75 0 L 656.25 0 L 656.25 750 L 93.75 750 Z M 93.75 0 " clip-rule="nonzero"/></clipPath></defs><g clip-path="url(#75f3cb70af)"><path fill="#000000" d="M 375 0 C 219.890625 0 93.75 126.140625 93.75 281.25 C 93.75 476.203125 347.625 732.328125 358.40625 743.15625 C 363 747.703125 369 750 375 750 C 381 750 387 747.703125 391.59375 743.15625 C 402.375 732.328125 656.25 476.203125 656.25 281.25 C 656.25 126.140625 530.109375 0 375 0 Z M 375 421.875 C 297.46875 421.875 234.375 358.78125 234.375 281.25 C 234.375 203.71875 297.46875 140.625 375 140.625 C 452.53125 140.625 515.625 203.71875 515.625 281.25 C 515.625 358.78125 452.53125 421.875 375 421.875 Z M 375 421.875 " fill-opacity="1" fill-rule="nonzero"/></g></svg>