<svg xmlns="http://www.w3.org/2000/svg" xmlns:xlink="http://www.w3.org/1999/xlink" width="1000" zoomAndPan="magnify" viewBox="0 0 750 749.999995" height="1000" preserveAspectRatio="xMidYMid meet" version="1.0"><path fill="#46cc6b" d="M 750.023438 375.019531 C 750.023438 582.128906 582.128906 750.023438 375.019531 750.023438 C 301.644531 750.023438 233.1875 728.949219 175.378906 692.523438 L 0.015625 727.050781 L 71.035156 594.65625 C 26.351562 532.929688 0.015625 457.050781 0.015625 375.019531 C 0.015625 167.914062 167.914062 0.015625 375.019531 0.015625 C 582.128906 0.015625 750.023438 167.914062 750.023438 375.019531 Z M 750.023438 375.019531 " fill-opacity="1" fill-rule="nonzero"/><path fill="#ffffff" d="M 680.316406 375.019531 C 680.316406 380.015625 680.195312 385.011719 679.949219 390 C 679.703125 394.992188 679.335938 399.972656 678.847656 404.945312 C 678.355469 409.917969 677.746094 414.875 677.011719 419.816406 C 676.277344 424.757812 675.425781 429.679688 674.449219 434.582031 C 673.476562 439.480469 672.378906 444.355469 671.167969 449.203125 C 669.953125 454.046875 668.621094 458.863281 667.171875 463.644531 C 665.71875 468.425781 664.152344 473.167969 662.46875 477.871094 C 660.785156 482.574219 658.988281 487.234375 657.078125 491.851562 C 655.164062 496.46875 653.140625 501.035156 651.003906 505.550781 C 648.867188 510.066406 646.621094 514.53125 644.265625 518.9375 C 641.910156 523.34375 639.449219 527.6875 636.882812 531.972656 C 634.3125 536.257812 631.640625 540.480469 628.863281 544.632812 C 626.089844 548.789062 623.210938 552.871094 620.234375 556.886719 C 617.261719 560.898438 614.1875 564.835938 611.015625 568.699219 C 607.847656 572.558594 604.585938 576.34375 601.230469 580.042969 C 597.875 583.746094 594.429688 587.363281 590.898438 590.898438 C 587.363281 594.429688 583.746094 597.875 580.042969 601.230469 C 576.34375 604.585938 572.558594 607.847656 568.699219 611.015625 C 564.835938 614.1875 560.898438 617.261719 556.886719 620.234375 C 552.871094 623.210938 548.789062 626.089844 544.632812 628.863281 C 540.480469 631.640625 536.257812 634.3125 531.972656 636.882812 C 527.6875 639.449219 523.34375 641.910156 518.9375 644.265625 C 514.53125 646.621094 510.066406 648.867188 505.550781 651.003906 C 501.035156 653.140625 496.46875 655.164062 491.851562 657.078125 C 487.234375 658.988281 482.574219 660.785156 477.871094 662.46875 C 473.167969 664.152344 468.425781 665.71875 463.644531 667.171875 C 458.863281 668.621094 454.046875 669.953125 449.203125 671.167969 C 444.355469 672.378906 439.480469 673.476562 434.582031 674.449219 C 429.679688 675.425781 424.757812 676.277344 419.816406 677.011719 C 414.875 677.746094 409.917969 678.355469 404.945312 678.847656 C 399.972656 679.335938 394.992188 679.703125 390 679.949219 C 385.011719 680.195312 380.015625 680.316406 375.019531 680.316406 C 370.023438 680.316406 365.03125 680.195312 360.039062 679.949219 C 355.050781 679.703125 350.070312 679.335938 345.097656 678.847656 C 340.125 678.355469 335.167969 677.746094 330.222656 677.011719 C 325.28125 676.277344 320.359375 675.425781 315.460938 674.449219 C 310.558594 673.476562 305.6875 672.378906 300.839844 671.167969 C 295.992188 669.953125 291.179688 668.621094 286.398438 667.171875 C 281.617188 665.71875 276.875 664.152344 272.167969 662.46875 C 267.464844 660.785156 262.804688 658.988281 258.1875 657.078125 C 253.574219 655.164062 249.007812 653.140625 244.488281 651.003906 C 239.972656 648.867188 235.511719 646.621094 231.105469 644.265625 C 226.699219 641.910156 222.351562 639.449219 218.066406 636.882812 C 213.78125 634.3125 209.5625 631.640625 205.40625 628.863281 C 201.253906 626.089844 197.167969 623.210938 193.15625 620.234375 C 189.144531 617.261719 185.207031 614.1875 181.34375 611.015625 C 177.480469 607.847656 173.699219 604.585938 169.996094 601.230469 C 166.292969 597.875 162.675781 594.429688 159.144531 590.898438 C 155.609375 587.363281 152.167969 583.746094 148.8125 580.042969 C 145.457031 576.34375 142.195312 572.558594 139.023438 568.699219 C 135.855469 564.835938 132.78125 560.898438 129.804688 556.886719 C 126.828125 552.871094 123.953125 548.789062 121.175781 544.632812 C 118.402344 540.480469 115.726562 536.257812 113.160156 531.972656 C 110.589844 527.6875 108.128906 523.34375 105.773438 518.9375 C 103.417969 514.53125 101.171875 510.066406 99.035156 505.550781 C 96.898438 501.035156 94.875 496.46875 92.964844 491.851562 C 91.050781 487.234375 89.253906 482.574219 87.570312 477.871094 C 85.886719 473.167969 84.320312 468.425781 82.871094 463.644531 C 81.421875 458.863281 80.089844 454.046875 78.875 449.203125 C 77.660156 444.355469 76.566406 439.480469 75.589844 434.582031 C 74.617188 429.679688 73.761719 424.757812 73.027344 419.816406 C 72.296875 414.875 71.683594 409.917969 71.195312 404.945312 C 70.707031 399.972656 70.335938 394.992188 70.09375 390 C 69.847656 385.011719 69.726562 380.015625 69.726562 375.019531 C 69.726562 370.023438 69.847656 365.03125 70.09375 360.039062 C 70.335938 355.050781 70.707031 350.070312 71.195312 345.097656 C 71.683594 340.125 72.296875 335.167969 73.027344 330.222656 C 73.761719 325.28125 74.617188 320.359375 75.589844 315.460938 C 76.566406 310.558594 77.660156 305.6875 78.875 300.839844 C 80.089844 295.992188 81.421875 291.179688 82.871094 286.398438 C 84.320312 281.617188 85.886719 276.875 87.570312 272.167969 C 89.253906 267.464844 91.050781 262.804688 92.964844 258.1875 C 94.875 253.574219 96.898438 249.007812 99.035156 244.488281 C 101.171875 239.972656 103.417969 235.511719 105.773438 231.105469 C 108.128906 226.699219 110.589844 222.351562 113.160156 218.066406 C 115.726562 213.78125 118.402344 209.5625 121.175781 205.40625 C 123.953125 201.253906 126.828125 197.167969 129.804688 193.15625 C 132.78125 189.144531 135.855469 185.207031 139.023438 181.34375 C 142.195312 177.480469 145.457031 173.699219 148.8125 169.996094 C 152.167969 166.292969 155.609375 162.675781 159.144531 159.144531 C 162.675781 155.609375 166.292969 152.167969 169.996094 148.8125 C 173.699219 145.457031 177.480469 142.195312 181.34375 139.023438 C 185.207031 135.855469 189.144531 132.78125 193.15625 129.804688 C 197.167969 126.828125 201.253906 123.953125 205.40625 121.175781 C 209.5625 118.402344 213.78125 115.726562 218.066406 113.160156 C 222.351562 110.589844 226.699219 108.128906 231.105469 105.773438 C 235.511719 103.417969 239.972656 101.171875 244.488281 99.035156 C 249.007812 96.898438 253.574219 94.875 258.1875 92.964844 C 262.804688 91.050781 267.464844 89.253906 272.167969 87.570312 C 276.875 85.886719 281.617188 84.320312 286.398438 82.871094 C 291.179688 81.421875 295.992188 80.089844 300.839844 78.875 C 305.6875 77.660156 310.558594 76.566406 315.460938 75.589844 C 320.359375 74.617188 325.28125 73.761719 330.222656 73.027344 C 335.167969 72.296875 340.125 71.683594 345.097656 71.195312 C 350.070312 70.707031 355.050781 70.335938 360.039062 70.09375 C 365.03125 69.847656 370.023438 69.726562 375.019531 69.726562 C 380.015625 69.726562 385.011719 69.847656 390 70.09375 C 394.992188 70.335938 399.972656 70.707031 404.945312 71.195312 C 409.917969 71.683594 414.875 72.296875 419.816406 73.027344 C 424.757812 73.761719 429.679688 74.617188 434.582031 75.589844 C 439.480469 76.566406 444.355469 77.660156 449.203125 78.875 C 454.046875 80.089844 458.863281 81.421875 463.644531 82.871094 C 468.425781 84.320312 473.167969 85.886719 477.871094 87.570312 C 482.574219 89.253906 487.234375 91.050781 491.851562 92.964844 C 496.46875 94.875 501.035156 96.898438 505.550781 99.035156 C 510.066406 101.171875 514.53125 103.417969 518.9375 105.773438 C 523.34375 108.128906 527.6875 110.589844 531.972656 113.160156 C 536.257812 115.726562 540.480469 118.402344 544.632812 121.175781 C 548.789062 123.953125 552.871094 126.828125 556.886719 129.804688 C 560.898438 132.78125 564.835938 135.855469 568.699219 139.023438 C 572.558594 142.195312 576.34375 145.457031 580.042969 148.8125 C 583.746094 152.167969 587.363281 155.609375 590.898438 159.144531 C 594.429688 162.675781 597.875 166.292969 601.230469 169.996094 C 604.585938 173.699219 607.847656 177.480469 611.015625 181.34375 C 614.1875 185.207031 617.261719 189.144531 620.234375 193.15625 C 623.210938 197.167969 626.089844 201.253906 628.863281 205.40625 C 631.640625 209.5625 634.3125 213.78125 636.882812 218.066406 C 639.449219 222.351562 641.910156 226.699219 644.265625 231.105469 C 646.621094 235.511719 648.867188 239.972656 651.003906 244.488281 C 653.140625 249.007812 655.164062 253.574219 657.078125 258.1875 C 658.988281 262.804688 660.785156 267.464844 662.46875 272.167969 C 664.152344 276.875 665.71875 281.617188 667.171875 286.398438 C 668.621094 291.179688 669.953125 295.992188 671.167969 300.839844 C 672.378906 305.6875 673.476562 310.558594 674.449219 315.460938 C 675.425781 320.359375 676.277344 325.28125 677.011719 330.222656 C 677.746094 335.167969 678.355469 340.125 678.847656 345.097656 C 679.335938 350.070312 679.703125 355.050781 679.949219 360.039062 C 680.195312 365.03125 680.316406 370.023438 680.316406 375.019531 Z M 680.316406 375.019531 " fill-opacity="1" fill-rule="nonzero"/><path fill="#46cc6b" d="M 621.417969 375.019531 C 621.417969 379.054688 621.320312 383.082031 621.121094 387.109375 C 620.925781 391.136719 620.628906 395.160156 620.234375 399.171875 C 619.835938 403.183594 619.34375 407.1875 618.753906 411.175781 C 618.160156 415.164062 617.472656 419.136719 616.683594 423.089844 C 615.898438 427.046875 615.015625 430.980469 614.035156 434.890625 C 613.054688 438.800781 611.980469 442.6875 610.808594 446.546875 C 609.640625 450.40625 608.375 454.234375 607.015625 458.03125 C 605.65625 461.828125 604.207031 465.585938 602.664062 469.3125 C 601.121094 473.039062 599.488281 476.722656 597.761719 480.371094 C 596.039062 484.015625 594.226562 487.617188 592.324219 491.171875 C 590.425781 494.726562 588.4375 498.234375 586.363281 501.695312 C 584.289062 505.152344 582.132812 508.558594 579.894531 511.914062 C 577.652344 515.265625 575.332031 518.5625 572.929688 521.800781 C 570.527344 525.039062 568.046875 528.21875 565.488281 531.335938 C 562.929688 534.453125 560.296875 537.503906 557.589844 540.492188 C 554.882812 543.480469 552.101562 546.398438 549.25 549.25 C 546.398438 552.101562 543.480469 554.882812 540.492188 557.589844 C 537.503906 560.296875 534.453125 562.929688 531.335938 565.488281 C 528.21875 568.046875 525.039062 570.527344 521.800781 572.929688 C 518.5625 575.332031 515.265625 577.652344 511.914062 579.894531 C 508.558594 582.132812 505.152344 584.289062 501.695312 586.363281 C 498.234375 588.4375 494.726562 590.421875 491.171875 592.324219 C 487.617188 594.226562 484.015625 596.039062 480.371094 597.761719 C 476.722656 599.488281 473.039062 601.121094 469.3125 602.664062 C 465.585938 604.207031 461.828125 605.65625 458.03125 607.015625 C 454.234375 608.375 450.40625 609.640625 446.546875 610.808594 C 442.6875 611.980469 438.800781 613.054688 434.890625 614.035156 C 430.980469 615.015625 427.046875 615.898438 423.089844 616.683594 C 419.136719 617.472656 415.164062 618.160156 411.175781 618.753906 C 407.1875 619.34375 403.183594 619.835938 399.171875 620.234375 C 395.160156 620.628906 391.136719 620.925781 387.109375 621.121094 C 383.082031 621.320312 379.054688 621.417969 375.019531 621.417969 C 370.988281 621.417969 366.957031 621.320312 362.929688 621.121094 C 358.902344 620.925781 354.882812 620.628906 350.871094 620.234375 C 346.855469 619.835938 342.855469 619.34375 338.867188 618.753906 C 334.878906 618.160156 330.90625 617.472656 326.949219 616.683594 C 322.996094 615.898438 319.0625 615.015625 315.152344 614.035156 C 311.238281 613.054688 307.355469 611.980469 303.496094 610.808594 C 299.636719 609.640625 295.808594 608.375 292.011719 607.015625 C 288.214844 605.65625 284.453125 604.207031 280.726562 602.664062 C 277.003906 601.121094 273.316406 599.488281 269.671875 597.761719 C 266.027344 596.039062 262.425781 594.226562 258.867188 592.324219 C 255.3125 590.425781 251.804688 588.4375 248.347656 586.363281 C 244.886719 584.289062 241.480469 582.132812 238.128906 579.894531 C 234.777344 577.652344 231.480469 575.332031 228.242188 572.929688 C 225.003906 570.527344 221.824219 568.046875 218.707031 565.488281 C 215.589844 562.929688 212.539062 560.296875 209.550781 557.589844 C 206.5625 554.882812 203.640625 552.101562 200.789062 549.25 C 197.9375 546.398438 195.160156 543.480469 192.449219 540.492188 C 189.742188 537.503906 187.109375 534.453125 184.550781 531.335938 C 181.992188 528.21875 179.511719 525.039062 177.109375 521.800781 C 174.710938 518.5625 172.386719 515.265625 170.148438 511.914062 C 167.90625 508.558594 165.75 505.152344 163.675781 501.695312 C 161.605469 498.234375 159.617188 494.726562 157.714844 491.171875 C 155.816406 487.617188 154.003906 484.015625 152.277344 480.371094 C 150.554688 476.722656 148.921875 473.039062 147.378906 469.3125 C 145.835938 465.585938 144.382812 461.828125 143.023438 458.03125 C 141.667969 454.234375 140.402344 450.40625 139.230469 446.546875 C 138.0625 442.6875 136.984375 438.800781 136.007812 434.890625 C 135.027344 430.980469 134.144531 427.046875 133.355469 423.089844 C 132.570312 419.136719 131.878906 415.164062 131.289062 411.175781 C 130.695312 407.1875 130.203125 403.183594 129.808594 399.171875 C 129.414062 395.160156 129.117188 391.136719 128.917969 387.109375 C 128.722656 383.082031 128.621094 379.054688 128.621094 375.019531 C 128.621094 370.988281 128.722656 366.957031 128.917969 362.929688 C 129.117188 358.902344 129.414062 354.882812 129.808594 350.871094 C 130.203125 346.855469 130.695312 342.855469 131.289062 338.867188 C 131.878906 334.878906 132.570312 330.90625 133.355469 326.949219 C 134.144531 322.996094 135.027344 319.0625 136.007812 315.152344 C 136.984375 311.238281 138.0625 307.355469 139.230469 303.496094 C 140.402344 299.636719 141.667969 295.808594 143.023438 292.011719 C 144.382812 288.214844 145.835938 284.453125 147.378906 280.726562 C 148.921875 277.003906 150.554688 273.316406 152.277344 269.671875 C 154.003906 266.027344 155.816406 262.425781 157.714844 258.867188 C 159.617188 255.3125 161.605469 251.804688 163.675781 248.347656 C 165.75 244.886719 167.90625 241.480469 170.148438 238.128906 C 172.386719 234.777344 174.710938 231.480469 177.109375 228.242188 C 179.511719 225.003906 181.992188 221.824219 184.550781 218.707031 C 187.109375 215.589844 189.742188 212.539062 192.449219 209.550781 C 195.160156 206.5625 197.9375 203.640625 200.789062 200.789062 C 203.640625 197.9375 206.5625 195.160156 209.550781 192.453125 C 212.539062 189.742188 215.589844 187.109375 218.707031 184.550781 C 221.824219 181.992188 225.003906 179.511719 228.242188 177.109375 C 231.480469 174.710938 234.777344 172.386719 238.128906 170.148438 C 241.480469 167.90625 244.886719 165.75 248.347656 163.675781 C 251.804688 161.605469 255.3125 159.617188 258.867188 157.714844 C 262.425781 155.816406 266.027344 154.003906 269.671875 152.277344 C 273.316406 150.554688 277.003906 148.921875 280.726562 147.378906 C 284.453125 145.835938 288.214844 144.382812 292.011719 143.023438 C 295.808594 141.667969 299.636719 140.402344 303.496094 139.230469 C 307.355469 138.0625 311.238281 136.984375 315.152344 136.007812 C 319.0625 135.027344 322.996094 134.144531 326.949219 133.355469 C 330.90625 132.570312 334.878906 131.878906 338.867188 131.289062 C 342.855469 130.695312 346.855469 130.203125 350.871094 129.808594 C 354.882812 129.414062 358.902344 129.117188 362.929688 128.917969 C 366.957031 128.722656 370.988281 128.621094 375.019531 128.621094 C 379.054688 128.621094 383.082031 128.722656 387.109375 128.917969 C 391.136719 129.117188 395.160156 129.414062 399.171875 129.808594 C 403.183594 130.203125 407.1875 130.695312 411.175781 131.289062 C 415.164062 131.878906 419.136719 132.570312 423.089844 133.355469 C 427.046875 134.144531 430.980469 135.027344 434.890625 136.007812 C 438.800781 136.984375 442.6875 138.0625 446.546875 139.230469 C 450.40625 140.402344 454.234375 141.667969 458.03125 143.023438 C 461.828125 144.382812 465.585938 145.835938 469.3125 147.378906 C 473.039062 148.921875 476.722656 150.554688 480.371094 152.277344 C 484.015625 154.003906 487.617188 155.816406 491.171875 157.714844 C 494.726562 159.617188 498.234375 161.605469 501.695312 163.675781 C 505.152344 165.75 508.558594 167.90625 511.914062 170.148438 C 515.265625 172.386719 518.5625 174.710938 521.800781 177.109375 C 525.039062 179.511719 528.21875 181.992188 531.335938 184.550781 C 534.453125 187.109375 537.503906 189.742188 540.492188 192.449219 C 543.480469 195.160156 546.398438 197.9375 549.25 200.789062 C 552.101562 203.640625 554.882812 206.5625 557.589844 209.550781 C 560.296875 212.539062 562.929688 215.589844 565.488281 218.707031 C 568.046875 221.824219 570.527344 225.003906 572.929688 228.242188 C 575.332031 231.480469 577.652344 234.777344 579.894531 238.128906 C 582.132812 241.480469 584.289062 244.886719 586.363281 248.347656 C 588.4375 251.804688 590.421875 255.3125 592.324219 258.867188 C 594.226562 262.425781 596.039062 266.027344 597.761719 269.671875 C 599.488281 273.316406 601.121094 277.003906 602.664062 280.726562 C 604.207031 284.453125 605.65625 288.214844 607.015625 292.011719 C 608.375 295.808594 609.640625 299.636719 610.808594 303.496094 C 611.980469 307.355469 613.054688 311.238281 614.035156 315.152344 C 615.015625 319.0625 615.898438 322.996094 616.683594 326.949219 C 617.472656 330.90625 618.160156 334.878906 618.753906 338.867188 C 619.34375 342.855469 619.835938 346.855469 620.234375 350.871094 C 620.628906 354.882812 620.925781 358.902344 621.121094 362.929688 C 621.320312 366.957031 621.417969 370.988281 621.417969 375.019531 Z M 621.417969 375.019531 " fill-opacity="1" fill-rule="nonzero"/><path fill="#ffffff" d="M 336.378906 315.839844 L 323.054688 276.035156 C 317.089844 258.210938 297.800781 248.597656 279.976562 254.566406 C 278.761719 254.972656 277.570312 255.449219 276.40625 255.988281 L 254.914062 266.003906 C 240.492188 272.734375 232.652344 288.550781 236.035156 304.101562 C 249.484375 366.3125 298.929688 515.273438 465.882812 533.84375 C 479.425781 535.351562 492.566406 528.640625 499.285156 516.78125 L 510.367188 497.199219 C 519.625 480.839844 513.871094 460.074219 497.511719 450.8125 L 497.28125 450.683594 L 467.527344 434.144531 C 454.289062 426.789062 437.789062 429.0625 427.03125 439.722656 C 416.359375 450.328125 399.980469 452.648438 386.78125 445.429688 C 368.691406 435.488281 343.886719 418.535156 326.503906 393.492188 C 318.492188 382.003906 318.3125 366.785156 326.050781 355.109375 L 332.445312 345.488281 C 338.261719 336.742188 339.714844 325.796875 336.378906 315.835938 Z M 336.378906 315.839844 " fill-opacity="1" fill-rule="nonzero"/></svg>