<svg xmlns="http://www.w3.org/2000/svg" xmlns:xlink="http://www.w3.org/1999/xlink" width="1000" zoomAndPan="magnify" viewBox="0 0 750 749.999995" height="1000" preserveAspectRatio="xMidYMid meet" version="1.0"><defs><clipPath id="43c95570f5"><path d="M 87.34375 176 L 662 176 L 662 719.4375 L 87.34375 719.4375 Z M 87.34375 176 " clip-rule="nonzero"/></clipPath></defs><g clip-path="url(#43c95570f5)"><path fill="#000000" d="M 658.769531 420.984375 L 387.25 181.007812 C 380.207031 174.785156 369.644531 174.785156 362.601562 181.007812 L 91.082031 420.984375 C 89.085938 422.75 87.9375 425.296875 87.9375 427.964844 L 87.9375 710.214844 C 87.9375 715.359375 92.109375 719.523438 97.246094 719.523438 L 288.109375 719.523438 C 293.242188 719.523438 297.414062 715.359375 297.414062 710.214844 L 297.414062 529.941406 C 297.414062 509.378906 314.074219 492.707031 334.628906 492.707031 L 415.222656 492.707031 C 435.777344 492.707031 452.4375 509.378906 452.4375 529.941406 L 452.4375 710.214844 C 452.4375 715.359375 456.609375 719.523438 461.742188 719.523438 L 652.605469 719.523438 C 657.742188 719.523438 661.914062 715.359375 661.914062 710.214844 L 661.914062 427.964844 C 661.914062 425.296875 660.765625 422.75 658.769531 420.984375 " fill-opacity="1" fill-rule="nonzero"/></g><path fill="#000000" d="M 733.570312 327.867188 L 424.066406 55.707031 C 395.957031 30.996094 353.886719 30.996094 325.785156 55.707031 L 16.28125 327.867188 C 1.023438 341.292969 0.269531 364.808594 14.628906 379.183594 C 27.757812 392.3125 48.816406 392.976562 62.738281 380.707031 L 350.328125 127.269531 C 364.386719 114.878906 385.464844 114.878906 399.523438 127.265625 L 687.113281 380.707031 C 701.039062 392.976562 722.101562 392.3125 735.222656 379.183594 C 749.589844 364.808594 748.828125 341.285156 733.570312 327.867188 " fill-opacity="1" fill-rule="nonzero"/></svg>