<svg xmlns="http://www.w3.org/2000/svg" xmlns:xlink="http://www.w3.org/1999/xlink" width="1000" zoomAndPan="magnify" viewBox="0 0 750 749.999995" height="1000" preserveAspectRatio="xMidYMid meet" version="1.0"><defs><clipPath id="ee07ef0d29"><path d="M 0 0.0742188 L 750 0.0742188 L 750 749.894531 L 0 749.894531 Z M 0 0.0742188 " clip-rule="nonzero"/></clipPath></defs><g clip-path="url(#ee07ef0d29)"><path fill="#000000" d="M 510.4375 701.742188 C 378.28125 756.484375 226.160156 726.226562 125.003906 625.070312 C 23.855469 523.921875 -6.410156 371.800781 48.332031 239.640625 C 103.070312 107.476562 232.042969 21.304688 375.09375 21.304688 C 570.332031 21.53125 728.546875 179.746094 728.777344 374.988281 C 728.777344 518.03125 642.597656 647.003906 510.4375 701.742188 Z M 375.09375 0.0820312 C 222.917969 0.0820312 86.953125 90.925781 28.730469 231.515625 C -29.511719 372.105469 2.390625 532.476562 109.996094 640.070312 C 180.8125 710.894531 274.984375 749.894531 375.175781 749.894531 L 375.1875 749.894531 C 424.59375 749.894531 472.839844 740.289062 518.570312 721.351562 C 659.160156 663.117188 750 527.15625 750 374.957031 C 749.753906 168.496094 581.582031 0.320312 375.09375 0.0820312 " fill-opacity="1" fill-rule="nonzero"/></g><path fill="#000000" d="M 407.242188 567.902344 L 375.09375 567.902344 C 357.332031 567.902344 342.941406 553.503906 342.941406 535.75 L 342.941406 374.988281 C 325.183594 374.988281 310.785156 360.589844 310.785156 342.832031 C 310.785156 325.078125 325.183594 310.679688 342.941406 310.679688 L 375.09375 310.679688 C 392.847656 310.679688 407.242188 325.078125 407.242188 342.832031 L 407.242188 503.59375 C 425.003906 503.59375 439.398438 517.992188 439.398438 535.75 C 439.398438 553.503906 425.003906 567.902344 407.242188 567.902344 Z M 375.09375 214.222656 C 392.847656 214.222656 407.242188 228.621094 407.242188 246.375 C 407.242188 264.128906 392.847656 278.53125 375.09375 278.53125 C 357.332031 278.53125 342.941406 264.128906 342.941406 246.375 C 342.941406 228.621094 357.332031 214.222656 375.09375 214.222656 Z M 485.828125 107.636719 C 377.699219 62.847656 253.230469 87.601562 170.472656 170.367188 C 87.707031 253.125 62.953125 377.59375 107.742188 485.722656 C 152.535156 593.851562 258.050781 664.363281 375.09375 664.363281 C 534.835938 664.183594 664.289062 534.730469 664.46875 374.988281 C 664.46875 257.945312 593.964844 152.425781 485.828125 107.636719 " fill-opacity="1" fill-rule="nonzero"/></svg>